<svg width="226" height="226" viewBox="0 0 226 226" fill="none" xmlns="http://www.w3.org/2000/svg">
<path d="M95.5029 189.626L95.4336 189.623C94.2842 189.577 92.9855 189.815 91.825 189.975C85.5514 190.838 79.2611 191.579 72.9841 192.413C72.6594 192.456 72.077 192.457 71.7814 192.35C71.5475 191.223 71.5892 188.8 71.5934 187.586L71.6185 180.948L71.6046 157.3L71.6187 60.1927C71.6215 58.0565 71.5325 39.2519 71.795 38.4756C72.2123 38.3141 72.9944 38.2074 73.4488 38.2094C79.6096 38.2362 85.7762 38.0112 91.9347 38.1394C92.8004 38.1574 94.2327 38.2636 95.0349 38.5678C95.6231 39.8344 95.7746 41.0247 96.1869 42.3222C98.2796 48.907 100.707 55.3779 102.83 61.9504C103.195 63.0815 103.782 64.2104 104.174 65.3417C105.111 68.0126 106.113 70.5979 107.052 73.2741C107.664 75.0187 108.695 77.087 109.38 78.8708L120.105 107.484C120.939 109.711 122.052 112.609 122.8 114.852L124.635 120.206C124.939 121.107 125.228 122.399 125.701 123.168C126.081 122.856 126.073 122.627 126.201 122.153C126.571 120.373 126.203 118.472 126.354 116.636C126.184 114.242 126.335 112.288 126.34 109.923L126.27 100.618L126.312 72.4831L126.343 51.6278C126.349 47.2078 126.196 42.6877 126.631 38.2981C127.878 38.1565 130.329 38.1507 131.63 38.1354C135.002 38.1017 138.374 38.117 141.746 38.1812C143.636 38.2094 148.767 37.9368 150.302 38.4429C150.58 38.7229 150.705 39.4683 150.696 39.8472C150.564 45.8936 150.603 52.0049 150.604 58.0424C150.642 72.5891 150.597 87.1357 150.47 101.682L150.353 157.05L150.312 172.254C150.306 175.113 150.321 177.985 150.264 180.843C150.245 181.809 150.147 182.147 149.518 182.857C145.465 183.302 141.682 183.58 137.533 183.996C133.478 184.402 128.38 185.678 124.137 185.349C124.006 185.339 123.866 184.925 123.808 184.762C122.808 181.973 121.869 179.046 120.879 176.266L115.785 162.224L108.441 141.269C107.1 137.487 105.567 133.536 104.285 129.758L99.0034 114.111C98.4091 112.377 97.6527 109.39 96.6757 107.919C96.4375 107.746 96.3431 107.66 96.0517 107.579C95.62 110.665 95.8362 113.175 95.8333 116.272L95.7989 129.759L95.6975 171.877L95.7141 182.515C95.7175 184.647 95.813 187.587 95.5029 189.626Z" fill="white"/>
<path d="M126.354 116.637C126.647 117.326 126.415 117.713 126.52 118.292C126.865 120.186 127.281 120.617 126.497 122.543C126.414 122.747 126.326 122.95 126.234 123.151L126.201 122.153C126.571 120.373 126.203 118.472 126.354 116.637Z" fill="white"/>
<path d="M95.752 105.322C96.2043 106.093 96.6801 106.769 96.6809 107.677L96.6816 107.761C96.6799 107.813 96.6782 107.866 96.6767 107.919C96.4385 107.747 96.3441 107.661 96.0527 107.58C96.037 106.88 95.8695 106.028 95.752 105.322Z" fill="white"/>
<path d="M125.701 123.168C126.081 122.855 126.073 122.627 126.201 122.152L126.234 123.15C126.106 123.474 126.165 124.24 125.879 124.536C125.643 124.108 125.641 123.639 125.701 123.168Z" fill="white"/>
</svg>
